<svg version="1.1" class="clearos-svg clearfoundation app-vendor-clearfoundation app-free app-category-gateway app-sub-category-content-filter-and-proxy" viewBox="0 0 400 400" preserveAspectRatio="xMinYMin" xmlns="http://www.w3.org/2000/svg" xmlns:xlink= "http://www.w3.org/1999/xlink">
<path style="fill:#AA0707;" d="M91.666,184.647"/>
<path style="fill:#AA0707;" d="M123.245,247.805"/>
<path style="fill:#AA0707;" d="M91.666,184.647"/>
<path style="fill:#AA0707;" d="M123.245,247.805"/>
<g>
	<path style="fill:#686868;" d="M329.067,141.918c6.05-11.979,9.55-25.485,9.55-39.835c0-48.854-39.599-88.467-88.452-88.467
		c-48.883,0-88.466,39.613-88.466,88.452c0,48.838,39.615,88.482,88.466,88.482c15.32,0,29.743-3.922,42.303-10.782l64.893,65.391
		l37.336-37.071L329.067,141.918z M250.136,172.607c-38.939,0-70.533-31.579-70.533-70.555c0-38.953,31.594-70.54,70.533-70.54
		c38.952,0,70.547,31.587,70.547,70.54C320.683,141.028,289.058,172.607,250.136,172.607z"/>
	<path style="fill:#686868;" d="M321.167,228.827l-13.278-13.132c-7.768,66.803-64.452,118.666-133.332,118.666
		c-74.176,0-134.325-60.134-134.325-134.324c0-64.143,45.013-117.718,105.13-131.055c1.536-5.67,3.458-11.163,5.854-16.428
		C79.773,63.79,25.068,125.459,25.068,200.037c0,82.55,66.933,149.481,149.472,149.481
		C247.256,349.519,307.727,297.583,321.167,228.827z"/>
	<path style="fill:#686868;" d="M141.905,90.251c0.138-1.946,0.242-3.886,0.469-5.809c-31.315,11.669-56.301,39.497-67.148,75.306
		h27.322C109.312,128.991,123.647,104.103,141.905,90.251z"/>
	<path style="fill:#686868;" d="M69.198,200.037c0,8.021,0.705,15.851,1.99,23.414H99.61c-0.933-7.563-1.424-15.363-1.424-23.414
		c0-8.312,0.533-16.398,1.518-24.234H71.29C69.939,183.653,69.198,191.74,69.198,200.037z"/>
	<path style="fill:#686868;" d="M165.745,321.362v-0.381c-29.612-5.406-54.024-37.852-63.395-81.458H74.963
		C88.256,284.303,123.389,317.28,165.745,321.362z"/>
	<path style="fill:#686868;" d="M165.745,175.817h-51.798c-1.221,7.755-1.939,15.848-1.939,24.22c0,8.08,0.662,15.923,1.808,23.428
		h51.929V175.817z"/>
	<path style="fill:#686868;" d="M117.375,159.75h44.249c-9.474-13.322-15.975-28.878-18.617-45.755
		C131.726,124.527,122.701,140.515,117.375,159.75z"/>
	<path style="fill:#686868;" d="M236.915,204.591c-20.724-2.479-39.67-10.78-55.124-23.287v42.147H235.3
		C236.227,217.371,236.725,211.024,236.915,204.591z"/>
	<path style="fill:#686868;" d="M232.009,239.521h-50.196v59.604C204.396,294.939,223.315,271.6,232.009,239.521z"/>
	<path style="fill:#686868;" d="M165.745,239.521h-48.625c8.468,31.315,26.71,54.258,48.625,59.207V239.521z"/>
	<path style="fill:#686868;" d="M279.864,201.066c-9.254,2.673-19.007,4.215-29.113,4.303c-0.178,6.141-0.561,12.206-1.294,18.082
		h28.467C279.129,216.194,279.805,208.734,279.864,201.066z"/>
	<path style="fill:#686868;" d="M181.792,321.509c43.035-3.451,78.919-36.646,92.373-81.988h-27.408
		c-9.548,44.417-34.663,77.23-64.964,81.769V321.509z"/>
	<path style="fill:#686868;" d="M43.246,89.708c20.417,0,36.947-16.546,36.947-36.956s-16.545-36.94-36.947-36.94
		c-20.41,0-36.94,16.53-36.94,36.94C6.306,73.161,22.836,89.708,43.246,89.708z M43.246,26.745c14.363,0,25.998,11.626,25.998,25.99
		c-0.018,14.367-11.636,26.021-25.998,26.021c-14.388,0-26.022-11.64-26.022-26.021C17.224,38.386,28.842,26.745,43.246,26.745z"/>
	<path style="fill:#686868;" d="M304.128,312.52c-20.408,0-36.954,16.528-36.954,36.925c0,20.425,16.544,36.939,36.954,36.939
		s36.926-16.515,36.926-36.939C341.054,329.048,324.539,312.52,304.128,312.52z M304.128,375.47
		c-14.391,0-26.029-11.639-26.029-26.025c0-14.327,11.639-26.014,26.029-26.014c14.356,0,25.996,11.671,25.996,26.014
		C330.128,363.817,318.518,375.47,304.128,375.47z"/>
	<path style="fill:#686868;" d="M42.242,312.52c-20.409,0-36.938,16.528-36.938,36.925c0,20.425,16.529,36.939,36.938,36.939
		c20.403,0,36.934-16.515,36.934-36.939C79.176,329.048,62.629,312.52,42.242,312.52z M42.242,375.47
		c-14.372,0-26.021-11.639-26.021-26.025c0-14.327,11.633-26.014,26.021-26.014c14.381,0,26.015,11.671,26.015,26.014
		C68.243,363.817,56.624,375.47,42.242,375.47z"/>
	<path style="fill:#686868;" d="M340.188,60.702c0.562-2.562,0.865-5.22,0.865-7.95c0-20.41-16.515-36.94-36.926-36.94
		c-0.427,0-0.849,0.018-1.271,0.032C320.025,25.874,333.372,41.729,340.188,60.702z"/>
</g>
</svg>
